<svg width="240" height="80" viewBox="0 0 240 80" fill="none" xmlns="http://www.w3.org/2000/svg">
<rect x="1" y="1" width="238" height="78" rx="7" fill="black" stroke="#D4D4D4" stroke-width="2"/>
<path d="M40.7004 28.9906C38.9145 28.9906 36.151 26.9599 33.2406 27.0314C29.3976 27.0823 25.875 29.26 23.8951 32.7092C19.9071 39.6321 22.8666 49.8573 26.7566 55.4841C28.6649 58.2231 30.916 61.305 33.8999 61.209C36.7632 61.0865 37.837 59.3497 41.3126 59.3497C44.7618 59.3497 45.7395 61.2089 48.7724 61.1355C51.8561 61.0865 53.8134 58.3475 55.6972 55.5821C57.8748 52.4023 58.779 49.3185 58.828 49.149C58.7545 49.1245 52.8338 46.8489 52.7622 39.9994C52.7132 34.2727 57.434 31.5337 57.6544 31.4112C54.9625 27.4741 50.8295 27.0333 49.3846 26.9354C45.617 26.6415 42.4617 28.9906 40.7004 28.9906ZM47.0638 23.2149C48.6518 21.3085 49.7011 18.6429 49.4091 16C47.1354 16.098 44.3945 17.5164 42.7556 19.4247C41.2862 21.1126 40.0165 23.829 40.3575 26.4211C42.878 26.617 45.472 25.1251 47.0619 23.2168" fill="white"/>
<path d="M187.207 17.2H190.347L191.747 27.22H191.787L193.187 17.2H196.327V31.2H194.247V20.6H194.207L192.607 31.2H190.767L189.167 20.6H189.127V31.2H187.207V17.2Z" fill="white"/>
<path d="M182.379 31.4C181.299 31.4 180.473 31.0933 179.899 30.48C179.326 29.8667 179.039 29 179.039 27.88V20.52C179.039 19.4 179.326 18.5333 179.899 17.92C180.473 17.3067 181.299 17 182.379 17C183.459 17 184.286 17.3067 184.859 17.92C185.433 18.5333 185.719 19.4 185.719 20.52V27.88C185.719 29 185.433 29.8667 184.859 30.48C184.286 31.0933 183.459 31.4 182.379 31.4ZM182.379 29.4C183.139 29.4 183.519 28.94 183.519 28.02V20.38C183.519 19.46 183.139 19 182.379 19C181.619 19 181.239 19.46 181.239 20.38V28.02C181.239 28.94 181.619 29.4 182.379 29.4Z" fill="white"/>
<path d="M171.133 17.2H174.393C175.526 17.2 176.353 17.4667 176.873 18C177.393 18.52 177.653 19.3267 177.653 20.42V21.28C177.653 22.7333 177.173 23.6533 176.213 24.04V24.08C176.746 24.24 177.119 24.5667 177.333 25.06C177.559 25.5533 177.673 26.2133 177.673 27.04V29.5C177.673 29.9 177.686 30.2267 177.713 30.48C177.739 30.72 177.806 30.96 177.913 31.2H175.673C175.593 30.9733 175.539 30.76 175.513 30.56C175.486 30.36 175.473 30 175.473 29.48V26.92C175.473 26.28 175.366 25.8333 175.153 25.58C174.953 25.3267 174.599 25.2 174.093 25.2H173.333V31.2H171.133V17.2ZM174.133 23.2C174.573 23.2 174.899 23.0867 175.113 22.86C175.339 22.6333 175.453 22.2533 175.453 21.72V20.64C175.453 20.1333 175.359 19.7667 175.173 19.54C174.999 19.3133 174.719 19.2 174.333 19.2H173.333V23.2H174.133Z" fill="white"/>
<path d="M164.258 17.2H170.078V19.2H166.458V23.1H169.298V25.1H166.458V31.2H164.258V17.2Z" fill="white"/>
<path d="M155.49 19.2H153.19V17.2H159.99V19.2H157.69V31.2H155.49V19.2Z" fill="white"/>
<path d="M149.922 17.2H152.122V31.2H149.922V17.2Z" fill="white"/>
<path d="M138.594 17.2H141.954C143.047 17.2 143.867 17.4933 144.414 18.08C144.96 18.6667 145.234 19.5267 145.234 20.66V27.74C145.234 28.8733 144.96 29.7333 144.414 30.32C143.867 30.9067 143.047 31.2 141.954 31.2H138.594V17.2ZM141.914 29.2C142.274 29.2 142.547 29.0933 142.734 28.88C142.934 28.6667 143.034 28.32 143.034 27.84V20.56C143.034 20.08 142.934 19.7333 142.734 19.52C142.547 19.3067 142.274 19.2 141.914 19.2H140.794V29.2H141.914Z" fill="white"/>
<path d="M132.266 17.2H135.246L137.526 31.2H135.326L134.926 28.42V28.46H132.426L132.026 31.2H129.986L132.266 17.2ZM134.666 26.56L133.686 19.64H133.646L132.686 26.56H134.666Z" fill="white"/>
<path d="M125.778 31.4C124.698 31.4 123.871 31.0933 123.298 30.48C122.724 29.8667 122.438 29 122.438 27.88V20.52C122.438 19.4 122.724 18.5333 123.298 17.92C123.871 17.3067 124.698 17 125.778 17C126.858 17 127.684 17.3067 128.258 17.92C128.831 18.5333 129.118 19.4 129.118 20.52V27.88C129.118 29 128.831 29.8667 128.258 30.48C127.684 31.0933 126.858 31.4 125.778 31.4ZM125.778 29.4C126.538 29.4 126.918 28.94 126.918 28.02V20.38C126.918 19.46 126.538 19 125.778 19C125.018 19 124.638 19.46 124.638 20.38V28.02C124.638 28.94 125.018 29.4 125.778 29.4Z" fill="white"/>
<path d="M115.801 17.2H118.001V29.2H121.621V31.2H115.801V17.2Z" fill="white"/>
<path d="M107.266 17.2H110.026L112.166 25.58H112.206V17.2H114.166V31.2H111.906L109.266 20.98H109.226V31.2H107.266V17.2Z" fill="white"/>
<path d="M95.6128 17.2H97.7328L98.7128 27.96H98.7528L99.7928 17.2H102.193L103.233 27.96H103.273L104.253 17.2H106.153L104.733 31.2H101.993L100.993 21.76H100.953L99.9528 31.2H97.0328L95.6128 17.2Z" fill="white"/>
<path d="M91.305 31.4C90.225 31.4 89.3983 31.0933 88.825 30.48C88.2517 29.8667 87.965 29 87.965 27.88V20.52C87.965 19.4 88.2517 18.5333 88.825 17.92C89.3983 17.3067 90.225 17 91.305 17C92.385 17 93.2117 17.3067 93.785 17.92C94.3583 18.5333 94.645 19.4 94.645 20.52V27.88C94.645 29 94.3583 29.8667 93.785 30.48C93.2117 31.0933 92.385 31.4 91.305 31.4ZM91.305 29.4C92.065 29.4 92.445 28.94 92.445 28.02V20.38C92.445 19.46 92.065 19 91.305 19C90.545 19 90.165 19.46 90.165 20.38V28.02C90.165 28.94 90.545 29.4 91.305 29.4Z" fill="white"/>
<path d="M80 17.2H83.36C84.4533 17.2 85.2733 17.4933 85.82 18.08C86.3667 18.6667 86.64 19.5267 86.64 20.66V27.74C86.64 28.8733 86.3667 29.7333 85.82 30.32C85.2733 30.9067 84.4533 31.2 83.36 31.2H80V17.2ZM83.32 29.2C83.68 29.2 83.9533 29.0933 84.14 28.88C84.34 28.6667 84.44 28.32 84.44 27.84V20.56C84.44 20.08 84.34 19.7333 84.14 19.52C83.9533 19.3067 83.68 19.2 83.32 19.2H82.2V29.2H83.32Z" fill="white"/>
<path d="M172.74 40.32H182.34V43.52H176.26V49.44H181.092V52.64H176.26V59.52H182.34V62.72H172.74V40.32Z" fill="white"/>
<path d="M159.834 40.32H165.05C166.864 40.32 168.186 40.7467 169.018 41.6C169.85 42.432 170.266 43.7227 170.266 45.472V46.848C170.266 49.1733 169.498 50.6453 167.962 51.264V51.328C168.816 51.584 169.413 52.1067 169.754 52.896C170.117 53.6853 170.298 54.7413 170.298 56.064V60C170.298 60.64 170.32 61.1627 170.362 61.568C170.405 61.952 170.512 62.336 170.682 62.72H167.098C166.97 62.3573 166.885 62.016 166.842 61.696C166.8 61.376 166.778 60.8 166.778 59.968V55.872C166.778 54.848 166.608 54.1333 166.266 53.728C165.946 53.3227 165.381 53.12 164.57 53.12H163.354V62.72H159.834V40.32ZM164.634 49.92C165.338 49.92 165.861 49.7387 166.202 49.376C166.565 49.0133 166.746 48.4053 166.746 47.552V45.824C166.746 45.0133 166.597 44.4267 166.298 44.064C166.021 43.7013 165.573 43.52 164.954 43.52H163.354V49.92H164.634Z" fill="white"/>
<path d="M152.11 63.04C150.382 63.04 149.059 62.5493 148.142 61.568C147.224 60.5867 146.766 59.2 146.766 57.408V45.632C146.766 43.84 147.224 42.4533 148.142 41.472C149.059 40.4907 150.382 40 152.11 40C153.838 40 155.16 40.4907 156.078 41.472C156.995 42.4533 157.454 43.84 157.454 45.632V57.408C157.454 59.2 156.995 60.5867 156.078 61.568C155.16 62.5493 153.838 63.04 152.11 63.04ZM152.11 59.84C153.326 59.84 153.934 59.104 153.934 57.632V45.408C153.934 43.936 153.326 43.2 152.11 43.2C150.894 43.2 150.286 43.936 150.286 45.408V57.632C150.286 59.104 150.894 59.84 152.11 59.84Z" fill="white"/>
<path d="M138.243 43.52H134.562V40.32H145.443V43.52H141.763V62.72H138.243V43.52Z" fill="white"/>
<path d="M128.16 63.04C126.454 63.04 125.163 62.56 124.288 61.6C123.414 60.6187 122.976 59.2213 122.976 57.408V56.128H126.304V57.664C126.304 59.1147 126.912 59.84 128.128 59.84C128.726 59.84 129.174 59.6693 129.472 59.328C129.792 58.9653 129.952 58.3893 129.952 57.6C129.952 56.6613 129.739 55.84 129.312 55.136C128.886 54.4107 128.096 53.5467 126.944 52.544C125.494 51.264 124.48 50.112 123.904 49.088C123.328 48.0427 123.04 46.8693 123.04 45.568C123.04 43.7973 123.488 42.432 124.384 41.472C125.28 40.4907 126.582 40 128.288 40C129.974 40 131.243 40.4907 132.096 41.472C132.971 42.432 133.408 43.8187 133.408 45.632V46.56H130.08V45.408C130.08 44.64 129.931 44.0853 129.632 43.744C129.334 43.3813 128.896 43.2 128.32 43.2C127.147 43.2 126.56 43.9147 126.56 45.344C126.56 46.1547 126.774 46.912 127.2 47.616C127.648 48.32 128.448 49.1733 129.6 50.176C131.072 51.456 132.086 52.6187 132.64 53.664C133.195 54.7093 133.472 55.936 133.472 57.344C133.472 59.1787 133.014 60.5867 132.096 61.568C131.2 62.5493 129.888 63.04 128.16 63.04Z" fill="white"/>
<path d="M106.115 40.32H111.299C113.049 40.32 114.361 40.7893 115.235 41.728C116.11 42.6667 116.547 44.0427 116.547 45.856V48.064C116.547 49.8773 116.11 51.2533 115.235 52.192C114.361 53.1307 113.049 53.6 111.299 53.6H109.635V62.72H106.115V40.32ZM111.299 50.4C111.875 50.4 112.302 50.24 112.579 49.92C112.878 49.6 113.027 49.056 113.027 48.288V45.632C113.027 44.864 112.878 44.32 112.579 44C112.302 43.68 111.875 43.52 111.299 43.52H109.635V50.4H111.299Z" fill="white"/>
<path d="M93.7717 40.32H98.9557C100.705 40.32 102.017 40.7893 102.892 41.728C103.766 42.6667 104.204 44.0427 104.204 45.856V48.064C104.204 49.8773 103.766 51.2533 102.892 52.192C102.017 53.1307 100.705 53.6 98.9557 53.6H97.2917V62.72H93.7717V40.32ZM98.9557 50.4C99.5317 50.4 99.9584 50.24 100.236 49.92C100.534 49.6 100.684 49.056 100.684 48.288V45.632C100.684 44.864 100.534 44.32 100.236 44C99.9584 43.68 99.5317 43.52 98.9557 43.52H97.2917V50.4H98.9557Z" fill="white"/>
<path d="M83.648 40.32H88.416L92.064 62.72H88.544L87.904 58.272V58.336H83.904L83.264 62.72H80L83.648 40.32ZM87.488 55.296L85.92 44.224H85.856L84.32 55.296H87.488Z" fill="white"/>
</svg>
