<svg width="240" height="80" viewBox="0 0 240 80" fill="none" xmlns="http://www.w3.org/2000/svg">
<rect x="1" y="1" width="238" height="78" rx="7" fill="black" stroke="#D4D4D4" stroke-width="2"/>
<path d="M54.9727 35.7609H26.0269C24.5287 35.7609 23.3124 36.961 23.3124 38.443V56.3179C23.3124 57.7982 24.527 59 26.0269 59H54.9727C56.4709 59 57.6872 57.7999 57.6872 56.3179V38.443C57.6872 36.961 56.4709 35.7609 54.9727 35.7609ZM40.4998 56.7652C35.2621 56.7652 31.0015 52.5556 31.0015 47.3805C31.0015 42.2053 35.2621 37.9957 40.4998 37.9957C45.7375 37.9957 49.998 42.2053 49.998 47.3805C49.998 52.5556 45.7375 56.7652 40.4998 56.7652ZM40.4998 39.6937C36.2102 39.6937 32.7201 43.1421 32.7201 47.3805C32.7201 51.6188 36.2102 55.0672 40.4998 55.0672C44.7894 55.0672 48.2795 51.6188 48.2795 47.3805C48.2795 43.1421 44.7894 39.6937 40.4998 39.6937ZM40.4998 52.9657C37.8297 52.9657 35.5781 51.104 34.9973 48.6312H37.8502C38.32 49.6119 39.3176 50.2837 40.4998 50.2837C42.1398 50.2837 43.4398 48.9992 43.4398 47.3788C43.4398 45.7584 42.1398 44.4739 40.4998 44.4739C39.3911 44.4739 38.4498 45.068 37.9493 45.9491H35.0417C35.6874 43.5658 37.8929 41.7935 40.4998 41.7935C43.6055 41.7935 46.1526 44.3102 46.1526 47.3788C46.1526 50.4491 43.6055 52.9657 40.4998 52.9657ZM60.7417 19.4135L60.7383 19.4186C60.7348 19.4152 60.7314 19.4135 60.728 19.4102C60.728 19.4102 60.7314 19.4051 60.7348 19.4034C60.5367 19.1722 60.2582 19.0135 59.8482 19.0017C59.5031 19.0101 59.1803 19.1654 58.9736 19.4389L55.8678 23.4105C55.5877 23.3126 55.2887 23.2501 54.9744 23.2501H26.0269C25.7126 23.2501 25.4153 23.3143 25.1334 23.4105L22.0277 19.4372C21.821 19.1637 21.4981 19.0101 21.153 19C20.7431 19.0101 20.4646 19.1688 20.2664 19.4017C20.2664 19.4017 20.2698 19.4068 20.2733 19.4085C20.2681 19.4118 20.2647 19.4152 20.2613 19.4186L20.2579 19.4135C20.1451 19.5452 19.7505 20.1326 20.2374 20.8044L23.4986 24.9752C23.3841 25.2723 23.3141 25.593 23.3141 25.9305V32.1876C23.3141 33.6679 24.5287 34.8697 26.0286 34.8697H54.9744C56.4726 34.8697 57.6889 33.6696 57.6889 32.1876V25.9305C57.6889 25.593 57.6189 25.2723 57.5027 24.9752L60.7639 20.8044C61.249 20.1326 60.8544 19.5452 60.7417 19.4135ZM31.7942 32.6332C30.1081 32.6332 28.7414 31.2829 28.7414 29.6169C28.7414 27.951 30.1081 26.6006 31.7942 26.6006C33.4803 26.6006 34.8469 27.951 34.8469 29.6169C34.8469 31.2829 33.4803 32.6332 31.7942 32.6332ZM49.4326 32.6332C47.7465 32.6332 46.3798 31.2829 46.3798 29.6169C46.3798 27.951 47.7465 26.6006 49.4326 26.6006C51.1187 26.6006 52.4854 27.951 52.4854 29.6169C52.4854 31.2829 51.1187 32.6332 49.4326 32.6332Z" fill="white"/>
<path d="M144.344 40.3199H149.72C151.469 40.3199 152.781 40.7893 153.656 41.7279C154.53 42.6666 154.968 44.0426 154.968 45.8559V57.1839C154.968 58.9973 154.53 60.3733 153.656 61.3119C152.781 62.2506 151.469 62.7199 149.72 62.7199H144.344V40.3199ZM149.656 59.5199C150.232 59.5199 150.669 59.3493 150.968 59.0079C151.288 58.6666 151.448 58.1119 151.448 57.3439V45.6959C151.448 44.9279 151.288 44.3733 150.968 44.0319C150.669 43.6906 150.232 43.5199 149.656 43.5199H147.864V59.5199H149.656Z" fill="white"/>
<path d="M138.188 40.3199H141.708V62.7199H138.188V40.3199Z" fill="white"/>
<path d="M130.463 63.04C128.735 63.04 127.412 62.5493 126.495 61.568C125.578 60.5867 125.119 59.2 125.119 57.408V45.632C125.119 43.84 125.578 42.4533 126.495 41.472C127.412 40.4907 128.735 40 130.463 40C132.191 40 133.514 40.4907 134.431 41.472C135.348 42.4533 135.807 43.84 135.807 45.632V57.408C135.807 59.2 135.348 60.5867 134.431 61.568C133.514 62.5493 132.191 63.04 130.463 63.04ZM130.463 59.84C131.679 59.84 132.287 59.104 132.287 57.632V45.408C132.287 43.936 131.679 43.2 130.463 43.2C129.247 43.2 128.639 43.936 128.639 45.408V57.632C128.639 59.104 129.247 59.84 130.463 59.84Z" fill="white"/>
<path d="M112.469 40.3199H117.685C119.498 40.3199 120.821 40.7466 121.653 41.5999C122.485 42.4319 122.901 43.7226 122.901 45.4719V46.8479C122.901 49.1733 122.133 50.6453 120.597 51.2639V51.3279C121.45 51.5839 122.047 52.1066 122.389 52.8959C122.751 53.6853 122.933 54.7413 122.933 56.0639V59.9999C122.933 60.6399 122.954 61.1626 122.997 61.5679C123.039 61.9519 123.146 62.3359 123.317 62.7199H119.733C119.605 62.3573 119.519 62.0159 119.477 61.6959C119.434 61.3759 119.413 60.7999 119.413 59.9679V55.8719C119.413 54.8479 119.242 54.1333 118.901 53.7279C118.581 53.3226 118.015 53.1199 117.205 53.1199H115.989V62.7199H112.469V40.3199ZM117.269 49.9199C117.973 49.9199 118.495 49.7386 118.837 49.3759C119.199 49.0133 119.381 48.4053 119.381 47.5519V45.8239C119.381 45.0133 119.231 44.4266 118.933 44.0639C118.655 43.7013 118.207 43.5199 117.589 43.5199H115.989V49.9199H117.269Z" fill="white"/>
<path d="M99.4688 40.3199H104.845C106.594 40.3199 107.906 40.7893 108.781 41.7279C109.655 42.6666 110.093 44.0426 110.093 45.8559V57.1839C110.093 58.9973 109.655 60.3733 108.781 61.3119C107.906 62.2506 106.594 62.7199 104.845 62.7199H99.4688V40.3199ZM104.781 59.5199C105.357 59.5199 105.794 59.3493 106.093 59.0079C106.413 58.6666 106.573 58.1119 106.573 57.3439V45.6959C106.573 44.9279 106.413 44.3733 106.093 44.0319C105.794 43.6906 105.357 43.5199 104.781 43.5199H102.989V59.5199H104.781Z" fill="white"/>
<path d="M90.3318 49.92H97.3718V53.12H90.3318V49.92Z" fill="white"/>
<path d="M80 40.3199H89.312V43.5199H83.52V49.7599H88.064V52.9599H83.52V62.7199H80V40.3199Z" fill="white"/>
<path d="M187.207 17.2H190.347L191.747 27.22H191.787L193.187 17.2H196.327V31.2H194.247V20.6H194.207L192.607 31.2H190.767L189.167 20.6H189.127V31.2H187.207V17.2Z" fill="white"/>
<path d="M182.379 31.4C181.299 31.4 180.473 31.0933 179.899 30.48C179.326 29.8667 179.039 29 179.039 27.88V20.52C179.039 19.4 179.326 18.5333 179.899 17.92C180.473 17.3067 181.299 17 182.379 17C183.459 17 184.286 17.3067 184.859 17.92C185.433 18.5333 185.719 19.4 185.719 20.52V27.88C185.719 29 185.433 29.8667 184.859 30.48C184.286 31.0933 183.459 31.4 182.379 31.4ZM182.379 29.4C183.139 29.4 183.519 28.94 183.519 28.02V20.38C183.519 19.46 183.139 19 182.379 19C181.619 19 181.239 19.46 181.239 20.38V28.02C181.239 28.94 181.619 29.4 182.379 29.4Z" fill="white"/>
<path d="M171.133 17.2H174.393C175.526 17.2 176.353 17.4667 176.873 18C177.393 18.52 177.653 19.3267 177.653 20.42V21.28C177.653 22.7333 177.173 23.6533 176.213 24.04V24.08C176.746 24.24 177.119 24.5667 177.333 25.06C177.559 25.5533 177.673 26.2133 177.673 27.04V29.5C177.673 29.9 177.686 30.2267 177.713 30.48C177.739 30.72 177.806 30.96 177.913 31.2H175.673C175.593 30.9733 175.539 30.76 175.513 30.56C175.486 30.36 175.473 30 175.473 29.48V26.92C175.473 26.28 175.366 25.8333 175.153 25.58C174.953 25.3267 174.599 25.2 174.093 25.2H173.333V31.2H171.133V17.2ZM174.133 23.2C174.573 23.2 174.899 23.0867 175.113 22.86C175.339 22.6333 175.453 22.2533 175.453 21.72V20.64C175.453 20.1333 175.359 19.7667 175.173 19.54C174.999 19.3133 174.719 19.2 174.333 19.2H173.333V23.2H174.133Z" fill="white"/>
<path d="M164.258 17.2H170.078V19.2H166.458V23.1H169.298V25.1H166.458V31.2H164.258V17.2Z" fill="white"/>
<path d="M155.49 19.2H153.19V17.2H159.99V19.2H157.69V31.2H155.49V19.2Z" fill="white"/>
<path d="M149.922 17.2H152.122V31.2H149.922V17.2Z" fill="white"/>
<path d="M138.594 17.2H141.954C143.047 17.2 143.867 17.4933 144.414 18.08C144.96 18.6667 145.234 19.5267 145.234 20.66V27.74C145.234 28.8733 144.96 29.7333 144.414 30.32C143.867 30.9067 143.047 31.2 141.954 31.2H138.594V17.2ZM141.914 29.2C142.274 29.2 142.547 29.0933 142.734 28.88C142.934 28.6667 143.034 28.32 143.034 27.84V20.56C143.034 20.08 142.934 19.7333 142.734 19.52C142.547 19.3067 142.274 19.2 141.914 19.2H140.794V29.2H141.914Z" fill="white"/>
<path d="M132.266 17.2H135.246L137.526 31.2H135.326L134.926 28.42V28.46H132.426L132.026 31.2H129.986L132.266 17.2ZM134.666 26.56L133.686 19.64H133.646L132.686 26.56H134.666Z" fill="white"/>
<path d="M125.778 31.4C124.698 31.4 123.871 31.0933 123.298 30.48C122.724 29.8667 122.438 29 122.438 27.88V20.52C122.438 19.4 122.724 18.5333 123.298 17.92C123.871 17.3067 124.698 17 125.778 17C126.858 17 127.684 17.3067 128.258 17.92C128.831 18.5333 129.118 19.4 129.118 20.52V27.88C129.118 29 128.831 29.8667 128.258 30.48C127.684 31.0933 126.858 31.4 125.778 31.4ZM125.778 29.4C126.538 29.4 126.918 28.94 126.918 28.02V20.38C126.918 19.46 126.538 19 125.778 19C125.018 19 124.638 19.46 124.638 20.38V28.02C124.638 28.94 125.018 29.4 125.778 29.4Z" fill="white"/>
<path d="M115.801 17.2H118.001V29.2H121.621V31.2H115.801V17.2Z" fill="white"/>
<path d="M107.266 17.2H110.026L112.166 25.58H112.206V17.2H114.166V31.2H111.906L109.266 20.98H109.226V31.2H107.266V17.2Z" fill="white"/>
<path d="M95.6128 17.2H97.7328L98.7128 27.96H98.7528L99.7928 17.2H102.193L103.233 27.96H103.273L104.253 17.2H106.153L104.733 31.2H101.993L100.993 21.76H100.953L99.9528 31.2H97.0328L95.6128 17.2Z" fill="white"/>
<path d="M91.305 31.4C90.225 31.4 89.3983 31.0933 88.825 30.48C88.2517 29.8667 87.965 29 87.965 27.88V20.52C87.965 19.4 88.2517 18.5333 88.825 17.92C89.3983 17.3067 90.225 17 91.305 17C92.385 17 93.2117 17.3067 93.785 17.92C94.3583 18.5333 94.645 19.4 94.645 20.52V27.88C94.645 29 94.3583 29.8667 93.785 30.48C93.2117 31.0933 92.385 31.4 91.305 31.4ZM91.305 29.4C92.065 29.4 92.445 28.94 92.445 28.02V20.38C92.445 19.46 92.065 19 91.305 19C90.545 19 90.165 19.46 90.165 20.38V28.02C90.165 28.94 90.545 29.4 91.305 29.4Z" fill="white"/>
<path d="M80 17.2H83.36C84.4533 17.2 85.2733 17.4933 85.82 18.08C86.3667 18.6667 86.64 19.5267 86.64 20.66V27.74C86.64 28.8733 86.3667 29.7333 85.82 30.32C85.2733 30.9067 84.4533 31.2 83.36 31.2H80V17.2ZM83.32 29.2C83.68 29.2 83.9533 29.0933 84.14 28.88C84.34 28.6667 84.44 28.32 84.44 27.84V20.56C84.44 20.08 84.34 19.7333 84.14 19.52C83.9533 19.3067 83.68 19.2 83.32 19.2H82.2V29.2H83.32Z" fill="white"/>
</svg>
