<svg width="240" height="80" viewBox="0 0 240 80" fill="none" xmlns="http://www.w3.org/2000/svg">
<rect x="1" y="1" width="238" height="78" rx="7" fill="black" stroke="#D4D4D4" stroke-width="2"/>
<path d="M61.6658 42.2716L54.7552 46.1532L48.5569 40.0403L54.8046 33.8785L61.6658 37.7321C62.0708 37.9593 62.4077 38.2892 62.6421 38.688C62.8765 39.0868 63 39.5402 63 40.0018C63 40.4635 62.8765 40.9169 62.6421 41.3157C62.4077 41.7145 62.0708 42.0444 61.6658 42.2716ZM25.1975 20.6169C25.0666 20.9322 24.9995 21.2699 25 21.6109V58.391C25 58.7708 25.0794 59.1243 25.2187 59.441L44.8891 40.0386L25.1975 20.6169ZM46.723 38.2308L52.4681 32.5643L28.9235 19.3411C28.4189 19.0533 27.8311 18.943 27.2554 19.0279L46.723 38.2308ZM46.723 41.8481L27.3259 60.9811C27.8514 61.0441 28.4051 60.9531 28.9235 60.6608L52.4187 47.4657L46.723 41.8481Z" fill="white"/>
<path d="M187.207 17.2H190.347L191.747 27.22H191.787L193.187 17.2H196.327V31.2H194.247V20.6H194.207L192.607 31.2H190.767L189.167 20.6H189.127V31.2H187.207V17.2Z" fill="white"/>
<path d="M182.379 31.4C181.299 31.4 180.473 31.0933 179.899 30.48C179.326 29.8667 179.039 29 179.039 27.88V20.52C179.039 19.4 179.326 18.5333 179.899 17.92C180.473 17.3067 181.299 17 182.379 17C183.459 17 184.286 17.3067 184.859 17.92C185.433 18.5333 185.719 19.4 185.719 20.52V27.88C185.719 29 185.433 29.8667 184.859 30.48C184.286 31.0933 183.459 31.4 182.379 31.4ZM182.379 29.4C183.139 29.4 183.519 28.94 183.519 28.02V20.38C183.519 19.46 183.139 19 182.379 19C181.619 19 181.239 19.46 181.239 20.38V28.02C181.239 28.94 181.619 29.4 182.379 29.4Z" fill="white"/>
<path d="M171.133 17.2H174.393C175.526 17.2 176.353 17.4667 176.873 18C177.393 18.52 177.653 19.3267 177.653 20.42V21.28C177.653 22.7333 177.173 23.6533 176.213 24.04V24.08C176.746 24.24 177.119 24.5667 177.333 25.06C177.559 25.5533 177.673 26.2133 177.673 27.04V29.5C177.673 29.9 177.686 30.2267 177.713 30.48C177.739 30.72 177.806 30.96 177.913 31.2H175.673C175.593 30.9733 175.539 30.76 175.513 30.56C175.486 30.36 175.473 30 175.473 29.48V26.92C175.473 26.28 175.366 25.8333 175.153 25.58C174.953 25.3267 174.599 25.2 174.093 25.2H173.333V31.2H171.133V17.2ZM174.133 23.2C174.573 23.2 174.899 23.0867 175.113 22.86C175.339 22.6333 175.453 22.2533 175.453 21.72V20.64C175.453 20.1333 175.359 19.7667 175.173 19.54C174.999 19.3133 174.719 19.2 174.333 19.2H173.333V23.2H174.133Z" fill="white"/>
<path d="M164.258 17.2H170.078V19.2H166.458V23.1H169.298V25.1H166.458V31.2H164.258V17.2Z" fill="white"/>
<path d="M155.49 19.2H153.19V17.2H159.99V19.2H157.69V31.2H155.49V19.2Z" fill="white"/>
<path d="M149.922 17.2H152.122V31.2H149.922V17.2Z" fill="white"/>
<path d="M138.594 17.2H141.954C143.047 17.2 143.867 17.4933 144.414 18.08C144.96 18.6667 145.234 19.5267 145.234 20.66V27.74C145.234 28.8733 144.96 29.7333 144.414 30.32C143.867 30.9067 143.047 31.2 141.954 31.2H138.594V17.2ZM141.914 29.2C142.274 29.2 142.547 29.0933 142.734 28.88C142.934 28.6667 143.034 28.32 143.034 27.84V20.56C143.034 20.08 142.934 19.7333 142.734 19.52C142.547 19.3067 142.274 19.2 141.914 19.2H140.794V29.2H141.914Z" fill="white"/>
<path d="M132.266 17.2H135.246L137.526 31.2H135.326L134.926 28.42V28.46H132.426L132.026 31.2H129.986L132.266 17.2ZM134.666 26.56L133.686 19.64H133.646L132.686 26.56H134.666Z" fill="white"/>
<path d="M125.778 31.4C124.698 31.4 123.871 31.0933 123.298 30.48C122.724 29.8667 122.438 29 122.438 27.88V20.52C122.438 19.4 122.724 18.5333 123.298 17.92C123.871 17.3067 124.698 17 125.778 17C126.858 17 127.684 17.3067 128.258 17.92C128.831 18.5333 129.118 19.4 129.118 20.52V27.88C129.118 29 128.831 29.8667 128.258 30.48C127.684 31.0933 126.858 31.4 125.778 31.4ZM125.778 29.4C126.538 29.4 126.918 28.94 126.918 28.02V20.38C126.918 19.46 126.538 19 125.778 19C125.018 19 124.638 19.46 124.638 20.38V28.02C124.638 28.94 125.018 29.4 125.778 29.4Z" fill="white"/>
<path d="M115.801 17.2H118.001V29.2H121.621V31.2H115.801V17.2Z" fill="white"/>
<path d="M107.266 17.2H110.026L112.166 25.58H112.206V17.2H114.166V31.2H111.906L109.266 20.98H109.226V31.2H107.266V17.2Z" fill="white"/>
<path d="M95.6128 17.2H97.7328L98.7128 27.96H98.7528L99.7928 17.2H102.193L103.233 27.96H103.273L104.253 17.2H106.153L104.733 31.2H101.993L100.993 21.76H100.953L99.9528 31.2H97.0328L95.6128 17.2Z" fill="white"/>
<path d="M91.305 31.4C90.225 31.4 89.3983 31.0933 88.825 30.48C88.2517 29.8667 87.965 29 87.965 27.88V20.52C87.965 19.4 88.2517 18.5333 88.825 17.92C89.3983 17.3067 90.225 17 91.305 17C92.385 17 93.2117 17.3067 93.785 17.92C94.3583 18.5333 94.645 19.4 94.645 20.52V27.88C94.645 29 94.3583 29.8667 93.785 30.48C93.2117 31.0933 92.385 31.4 91.305 31.4ZM91.305 29.4C92.065 29.4 92.445 28.94 92.445 28.02V20.38C92.445 19.46 92.065 19 91.305 19C90.545 19 90.165 19.46 90.165 20.38V28.02C90.165 28.94 90.545 29.4 91.305 29.4Z" fill="white"/>
<path d="M80 17.2H83.36C84.4533 17.2 85.2733 17.4933 85.82 18.08C86.3667 18.6667 86.64 19.5267 86.64 20.66V27.74C86.64 28.8733 86.3667 29.7333 85.82 30.32C85.2733 30.9067 84.4533 31.2 83.36 31.2H80V17.2ZM83.32 29.2C83.68 29.2 83.9533 29.0933 84.14 28.88C84.34 28.6667 84.44 28.32 84.44 27.84V20.56C84.44 20.08 84.34 19.7333 84.14 19.52C83.9533 19.3067 83.68 19.2 83.32 19.2H82.2V29.2H83.32Z" fill="white"/>
<path d="M196.707 53.184L192.451 40.32H196.195L198.595 48.544H198.659L201.059 40.32H204.483L200.227 53.184V62.72H196.707V53.184Z" fill="white"/>
<path d="M184.82 40.32H189.588L193.236 62.72H189.716L189.076 58.272V58.336H185.076L184.436 62.72H181.172L184.82 40.32ZM188.66 55.296L187.092 44.224H187.028L185.492 55.296H188.66Z" fill="white"/>
<path d="M170.975 40.32H174.495V59.52H180.287V62.72H170.975V40.32Z" fill="white"/>
<path d="M158.631 40.32H163.815C165.564 40.32 166.876 40.7893 167.751 41.728C168.626 42.6667 169.063 44.0427 169.063 45.856V48.064C169.063 49.8773 168.626 51.2533 167.751 52.192C166.876 53.1307 165.564 53.6 163.815 53.6H162.151V62.72H158.631V40.32ZM163.815 50.4C164.391 50.4 164.818 50.24 165.095 49.92C165.394 49.6 165.543 49.056 165.543 48.288V45.632C165.543 44.864 165.394 44.32 165.095 44C164.818 43.68 164.391 43.52 163.815 43.52H162.151V50.4H163.815Z" fill="white"/>
<path d="M141.881 40.32H151.481V43.52H145.401V49.44H150.233V52.64H145.401V59.52H151.481V62.72H141.881V40.32Z" fill="white"/>
<path d="M130.881 40.32H134.401V59.52H140.193V62.72H130.881V40.32Z" fill="white"/>
<path d="M123.373 63.04C121.666 63.04 120.365 62.56 119.469 61.6C118.573 60.6187 118.125 59.2213 118.125 57.408V45.632C118.125 43.8187 118.573 42.432 119.469 41.472C120.365 40.4907 121.666 40 123.373 40C125.08 40 126.381 40.4907 127.277 41.472C128.173 42.432 128.621 43.8187 128.621 45.632V47.552H125.293V45.408C125.293 43.936 124.685 43.2 123.469 43.2C122.253 43.2 121.645 43.936 121.645 45.408V57.664C121.645 59.1147 122.253 59.84 123.469 59.84C124.685 59.84 125.293 59.1147 125.293 57.664V53.28H123.533V50.08H128.621V57.408C128.621 59.2213 128.173 60.6187 127.277 61.6C126.381 62.56 125.08 63.04 123.373 63.04Z" fill="white"/>
<path d="M110.656 63.04C108.928 63.04 107.606 62.5493 106.688 61.568C105.771 60.5867 105.312 59.2 105.312 57.408V45.632C105.312 43.84 105.771 42.4533 106.688 41.472C107.606 40.4907 108.928 40 110.656 40C112.385 40 113.707 40.4907 114.625 41.472C115.542 42.4533 116 43.84 116 45.632V57.408C116 59.2 115.542 60.5867 114.625 61.568C113.707 62.5493 112.385 63.04 110.656 63.04ZM110.656 59.84C111.872 59.84 112.48 59.104 112.48 57.632V45.408C112.48 43.936 111.872 43.2 110.656 43.2C109.44 43.2 108.833 43.936 108.833 45.408V57.632C108.833 59.104 109.44 59.84 110.656 59.84Z" fill="white"/>
<path d="M97.844 63.04C96.116 63.04 94.7933 62.5493 93.876 61.568C92.9587 60.5867 92.5 59.2 92.5 57.408V45.632C92.5 43.84 92.9587 42.4533 93.876 41.472C94.7933 40.4907 96.116 40 97.844 40C99.572 40 100.895 40.4907 101.812 41.472C102.729 42.4533 103.188 43.84 103.188 45.632V57.408C103.188 59.2 102.729 60.5867 101.812 61.568C100.895 62.5493 99.572 63.04 97.844 63.04ZM97.844 59.84C99.06 59.84 99.668 59.104 99.668 57.632V45.408C99.668 43.936 99.06 43.2 97.844 43.2C96.628 43.2 96.02 43.936 96.02 45.408V57.632C96.02 59.104 96.628 59.84 97.844 59.84Z" fill="white"/>
<path d="M85.248 63.04C83.5413 63.04 82.24 62.56 81.344 61.6C80.448 60.6187 80 59.2213 80 57.408V45.632C80 43.8187 80.448 42.432 81.344 41.472C82.24 40.4907 83.5413 40 85.248 40C86.9547 40 88.256 40.4907 89.152 41.472C90.048 42.432 90.496 43.8187 90.496 45.632V47.552H87.168V45.408C87.168 43.936 86.56 43.2 85.344 43.2C84.128 43.2 83.52 43.936 83.52 45.408V57.664C83.52 59.1147 84.128 59.84 85.344 59.84C86.56 59.84 87.168 59.1147 87.168 57.664V53.28H85.408V50.08H90.496V57.408C90.496 59.2213 90.048 60.6187 89.152 61.6C88.256 62.56 86.9547 63.04 85.248 63.04Z" fill="white"/>
</svg>
