<svg xmlns="http://www.w3.org/2000/svg" width="512" height="512" fill="none" viewBox="0 0 512 512"><path fill="#646464" d="M187.492 275.415c-15.119 4.291-25.037 11.813-31.571 19.33 6.258-5.476 14.641-10.502 25.949-13.708 11.565-3.278 21.433-3.254 29.585-1.681v-6.375c-6.955-.636-14.928-.129-23.963 2.434m-32.262-53.594-56.148 14.792s1.023 1.446 2.918 3.375l47.606-12.545s-.674 8.693-6.533 16.469c11.082-8.384 12.157-22.091 12.157-22.091m46.999 131.956C123.214 375.059 81.41 283.489 68.754 235.961c-5.848-21.939-8.4-38.554-9.08-49.276a18 18 0 0 1 .039-2.912c-4.1.247-6.062 2.378-5.662 8.535.68 10.716 3.233 27.331 9.08 49.276 12.651 47.522 54.461 139.091 133.476 117.81 17.198-4.633 30.119-13.073 39.819-23.845-8.94 8.074-20.13 14.433-34.197 18.228m14.849-187.997v5.623h30.992c-.636-1.991-1.276-3.785-1.912-5.623z"/><path fill="#646464" d="M254.997 212.092c13.938 3.959 21.31 13.731 25.206 22.379l15.541 4.414s-2.12-30.267-29.497-38.043c-25.611-7.276-41.371 14.23-43.288 17.013 7.45-5.307 18.33-9.653 32.038-5.763m123.709 22.519c-25.635-7.31-41.389 14.242-43.278 16.986 7.456-5.302 18.33-9.649 32.032-5.741 13.916 3.964 21.282 13.725 25.19 22.379l15.563 4.43s-2.154-30.272-29.507-38.054m-15.44 79.801-129.281-36.141s1.4 7.095 6.77 16.283l108.848 30.429c8.961-5.184 13.663-10.571 13.663-10.571m-89.631 77.795c-102.365-27.445-89.989-157.871-73.425-219.675 6.82-25.47 13.831-44.402 19.646-57.092-3.469-.714-6.343 1.113-9.182 6.888-6.174 12.521-14.068 32.909-21.709 61.449-16.559 61.803-28.934 192.225 73.426 219.67 48.247 12.925 85.834-6.719 113.852-37.571-26.595 24.088-60.55 37.593-102.608 26.331"/><path fill="#646464" fill-opacity=".3" d="M217.078 323.213v-26.319l-73.127 20.736s5.403-31.397 43.541-42.215c11.566-3.278 21.434-3.256 29.586-1.681V165.78h36.614c-3.986-12.319-7.843-21.804-11.082-28.394-5.358-10.908-10.851-3.677-23.322 6.753-8.783 7.338-30.981 22.991-64.384 31.992-33.404 9.007-60.41 6.618-71.677 4.667-15.974-2.756-24.33-6.264-23.548 5.887.68 10.716 3.233 27.332 9.08 49.276 12.651 47.522 54.461 139.092 133.476 117.811 20.64-5.562 35.208-16.554 45.306-30.565h-30.463zm-118.001-86.6 56.153-14.792s-1.637 21.602-22.688 27.151c-21.056 5.544-33.465-12.359-33.465-12.359"/><path fill="#646464" fill-opacity=".6" d="M428.41 167.028c-14.596 2.559-49.614 5.746-92.891-5.853-43.288-11.593-72.009-31.869-83.389-41.399-16.131-13.511-23.226-22.901-30.21-8.698-6.173 12.527-14.068 32.914-21.709 61.455-16.558 61.803-28.934 192.225 73.425 219.669 102.338 27.422 156.82-91.722 173.379-153.531 7.642-28.534 10.993-50.142 11.915-64.074 1.051-15.783-9.79-11.201-30.52-7.569M222.752 218.16s16.131-25.088 43.49-17.312c27.377 7.776 29.497 38.043 29.497 38.043zm66.785 112.582c-48.123-14.097-55.545-52.471-55.545-52.471l129.274 36.143c0-.006-26.094 30.248-73.729 16.328m45.706-78.864s16.109-25.071 43.463-17.272c27.354 7.788 29.508 38.054 29.508 38.054z"/><path fill="#646464" fill-opacity=".4" d="m191.521 304.141-47.572 13.483s5.167-29.439 40.212-41.106l-26.938-101.094-2.327.707c-33.404 9.008-60.41 6.619-71.677 4.667-15.974-2.754-24.33-6.264-23.548 5.888.68 10.716 3.233 27.331 9.08 49.276 12.652 47.521 54.461 139.091 133.476 117.81l2.328-.731zm-92.446-67.526 56.153-14.794s-1.637 21.602-22.688 27.151c-21.056 5.544-33.465-12.357-33.465-12.357"/><path fill="#646464" fill-opacity=".8" d="m291.708 331.27-2.177-.529c-48.123-14.096-55.545-52.47-55.545-52.47l66.662 18.633 35.292-135.617-.427-.112c-43.288-11.593-72.008-31.869-83.388-41.399-16.131-13.511-23.227-22.901-30.21-8.698-6.168 12.527-14.063 32.914-21.704 61.455-16.558 61.803-28.934 192.225 73.425 219.668l2.098.473zm-68.956-113.11s16.131-25.088 43.49-17.312c27.377 7.776 29.497 38.043 29.497 38.043z"/><path fill="#646464" fill-opacity=".5" d="m193.946 303.45-12.758 3.62c3.014 16.991 8.326 33.297 16.665 47.702 1.451-.32 2.891-.596 4.369-1.001 3.874-1.045 7.466-2.339 10.925-3.75-9.317-13.826-15.48-29.749-19.201-46.571m-4.982-119.672c-6.556 24.47-12.421 59.689-10.807 95.016 2.89-1.254 5.943-2.423 9.333-3.385l2.362-.528c-2.879-37.734 3.345-76.186 10.357-102.348a510 510 0 0 1 5.335-18.515 165 165 0 0 1-9.451 5.61 484 484 0 0 0-7.129 24.15"/></svg>