<svg xmlns="http://www.w3.org/2000/svg" width="512" height="512" fill="none" viewBox="0 0 512 512"><path fill="#646464" d="M256 84c-97.24 0-176 78.968-176 176.367 0 77.94 50.424 144.033 120.34 167.328 8.8 1.661 12.027-3.792 12.027-8.48 0-4.189-.147-15.285-.22-29.982-48.958 10.64-59.283-23.663-59.283-23.663-8.008-20.356-19.58-25.794-19.58-25.794-15.943-10.934 1.232-10.714 1.232-10.714 17.673 1.235 26.957 18.166 26.957 18.166 15.694 26.969 41.199 19.18 51.26 14.668 1.584-11.405 6.116-19.18 11.147-23.589-39.087-4.41-80.168-19.577-80.168-87.155 0-19.254 6.82-34.98 18.113-47.325-1.98-4.454-7.92-22.384 1.54-46.679 0 0 14.74-4.732 48.4 18.078 14.08-3.924 29.04-5.864 44-5.953 14.96.089 29.92 2.029 44 5.953 33.44-22.81 48.18-18.078 48.18-18.078 9.46 24.295 3.52 42.225 1.76 46.679 11.22 12.345 18.04 28.071 18.04 47.325 0 67.754-41.14 82.672-80.3 87.008 6.16 5.291 11.88 16.108 11.88 32.628 0 23.603-.22 42.563-.22 48.295 0 4.629 3.08 10.141 12.1 8.377C381.62 404.327 432 338.189 432 260.367 432 162.968 353.196 84 256 84"/></svg>