<svg xmlns="http://www.w3.org/2000/svg" width="512" height="512" fill="none" viewBox="0 0 512 512"><path fill="#646464" d="M458.93 179.755c-.945 14.155-4.337 36.106-12.083 65.109-16.79 62.825-72.055 183.893-175.836 156.04-103.78-27.903-91.242-160.437-74.452-223.246 7.763-29.019 15.761-49.719 22.022-62.47 7.087-14.425 14.276-4.887 30.628 8.845 11.542 9.69 40.668 30.288 84.56 42.075 43.891 11.787 79.413 8.557 94.212 5.953 21.009-3.704 32.012-8.355 30.949 7.694m-165.492 65.329s-2.143-30.762-29.919-38.66c-27.743-7.897-44.094 17.588-44.094 17.588zm68.478 76.76-131.101-36.731s7.526 38.997 56.328 53.321c48.296 14.138 74.773-16.573 74.773-16.59m45.579-42.447s-2.194-30.745-29.919-38.66c-27.742-7.931-44.077 17.554-44.077 17.554zm-208.877 82.459c-80.139 21.63-122.528-71.433-135.353-119.732-5.94-22.306-8.522-39.2-9.214-50.091-.793-12.345 7.678-8.794 23.878-5.987 11.424 1.996 38.812 4.414 72.697-4.735a190 190 0 0 0 40.668-16.167 420 420 0 0 0-2.868 10.316c-7.307 27.362-13.956 68.575-10.665 108.672-33.345 12.379-38.256 40.976-38.256 40.976l42.592-12.092c3.831 16.946 10.125 33.603 19.407 47.995-.958.29-1.92.584-2.886.845m-70.672-106.507c21.347-5.632 23-27.582 23-27.582l-56.935 15.017s12.588 18.196 33.935 12.565"/></svg>