<svg width="240" height="80" viewBox="0 0 240 80" fill="none" xmlns="http://www.w3.org/2000/svg">
<rect x="1" y="1" width="238" height="78" rx="7" fill="black" stroke="#D4D4D4" stroke-width="2"/>
<path fill-rule="evenodd" clip-rule="evenodd" d="M59.9709 35.3608C59.2467 34.6122 58.3308 34.0916 57.4757 33.5115C56.5071 32.8546 55.5457 32.185 54.6174 31.4717C52.8389 30.1041 51.2774 28.5726 49.879 26.8178C49.1661 25.9233 48.4998 24.9909 47.854 24.0472C47.2401 23.1502 46.6686 22.2088 45.9631 21.3788C44.7279 19.9252 42.8224 19.1173 40.9376 19.0117C38.9708 18.9015 36.8689 19.5705 35.4439 20.9591C34.6982 21.6859 34.1385 22.5902 33.5537 23.4444C32.9211 24.3685 32.2859 25.2906 31.6102 26.1839C30.3749 27.8164 28.9874 29.3117 27.4168 30.6276C25.6837 32.0797 23.7621 33.2538 21.9424 34.586C21.0938 35.2069 20.4143 35.9222 19.9148 36.8383C19.4771 37.6404 19.1949 38.5272 19.0714 39.4314C18.8296 41.2017 19.2033 43.0531 20.1727 44.5604C21.2983 46.3111 23.2421 47.2729 24.8997 48.4421C26.7413 49.7418 28.4847 51.1445 29.9845 52.8331C31.4958 54.5343 32.7567 56.4101 34.0417 58.2813C34.6147 59.1154 35.2055 59.934 36.0209 60.5486C36.7808 61.1212 37.6624 61.5259 38.5829 61.762C40.4939 62.2521 42.5745 61.9803 44.2848 60.9915C46.1221 59.9299 47.1431 57.9719 48.3244 56.2859C49.5539 54.5314 50.9049 52.8754 52.4585 51.3956C54.0724 49.8591 55.8912 48.5879 57.7285 47.3365C58.6035 46.7403 59.5476 46.1748 60.2545 45.3738C60.9185 44.6223 61.3898 43.6987 61.6763 42.741C62.1845 41.0409 62.0949 39.1711 61.4033 37.5346C61.0633 36.7307 60.5781 35.9887 59.9709 35.3608Z" fill="white"/>
<path d="M163.084 40.3199H172.684V43.5199H166.604V49.4399H171.436V52.6399H166.604V59.5199H172.684V62.7199H163.084V40.3199Z" fill="white"/>
<path d="M150.178 40.3199H155.394C157.207 40.3199 158.53 40.7466 159.362 41.5999C160.194 42.4319 160.61 43.7226 160.61 45.4719V46.8479C160.61 49.1733 159.842 50.6453 158.306 51.2639V51.3279C159.159 51.5839 159.757 52.1066 160.098 52.8959C160.461 53.6853 160.642 54.7413 160.642 56.0639V59.9999C160.642 60.6399 160.663 61.1626 160.706 61.5679C160.749 61.9519 160.855 62.3359 161.026 62.7199H157.442C157.314 62.3573 157.229 62.0159 157.186 61.6959C157.143 61.3759 157.122 60.7999 157.122 59.9679V55.8719C157.122 54.8479 156.951 54.1333 156.61 53.7279C156.29 53.3226 155.725 53.1199 154.914 53.1199H153.698V62.7199H150.178V40.3199ZM154.978 49.9199C155.682 49.9199 156.205 49.7386 156.546 49.3759C156.909 49.0133 157.09 48.4053 157.09 47.5519V45.8239C157.09 45.0133 156.941 44.4266 156.642 44.0639C156.365 43.7013 155.917 43.5199 155.298 43.5199H153.698V49.9199H154.978Z" fill="white"/>
<path d="M142.453 63.04C140.725 63.04 139.403 62.5493 138.485 61.568C137.568 60.5867 137.109 59.2 137.109 57.408V45.632C137.109 43.84 137.568 42.4533 138.485 41.472C139.403 40.4907 140.725 40 142.453 40C144.181 40 145.504 40.4907 146.421 41.472C147.339 42.4533 147.798 43.84 147.798 45.632V57.408C147.798 59.2 147.339 60.5867 146.421 61.568C145.504 62.5493 144.181 63.04 142.453 63.04ZM142.453 59.84C143.669 59.84 144.277 59.104 144.277 57.632V45.408C144.277 43.936 143.669 43.2 142.453 43.2C141.237 43.2 140.629 43.936 140.629 45.408V57.632C140.629 59.104 141.237 59.84 142.453 59.84Z" fill="white"/>
<path d="M128.586 43.5199H124.906V40.3199H135.786V43.5199H132.106V62.7199H128.586V43.5199Z" fill="white"/>
<path d="M118.504 63.04C116.797 63.04 115.507 62.56 114.632 61.6C113.757 60.6187 113.32 59.2213 113.32 57.408V56.128H116.648V57.664C116.648 59.1147 117.256 59.84 118.472 59.84C119.069 59.84 119.517 59.6693 119.816 59.328C120.136 58.9653 120.296 58.3893 120.296 57.6C120.296 56.6613 120.083 55.84 119.656 55.136C119.229 54.4107 118.44 53.5467 117.288 52.544C115.837 51.264 114.824 50.112 114.248 49.088C113.672 48.0427 113.384 46.8693 113.384 45.568C113.384 43.7973 113.832 42.432 114.728 41.472C115.624 40.4907 116.925 40 118.632 40C120.317 40 121.587 40.4907 122.44 41.472C123.315 42.432 123.752 43.8187 123.752 45.632V46.56H120.424V45.408C120.424 44.64 120.275 44.0853 119.976 43.744C119.677 43.3813 119.24 43.2 118.664 43.2C117.491 43.2 116.904 43.9147 116.904 45.344C116.904 46.1547 117.117 46.912 117.544 47.616C117.992 48.32 118.792 49.1733 119.944 50.176C121.416 51.456 122.429 52.6187 122.984 53.664C123.539 54.7093 123.816 55.936 123.816 57.344C123.816 59.1787 123.357 60.5867 122.44 61.568C121.544 62.5493 120.232 63.04 118.504 63.04Z" fill="white"/>
<path d="M105.024 43.5199H101.344V40.3199H112.224V43.5199H108.544V62.7199H105.024V43.5199Z" fill="white"/>
<path d="M93.7717 40.3199H97.2917V59.5199H103.084V62.7199H93.7717V40.3199Z" fill="white"/>
<path d="M83.648 40.3199H88.416L92.064 62.7199H88.544L87.904 58.2719V58.3359H83.904L83.264 62.7199H80L83.648 40.3199ZM87.488 55.2959L85.92 44.2239H85.856L84.32 55.2959H87.488Z" fill="white"/>
<path d="M187.207 17.2H190.347L191.747 27.22H191.787L193.187 17.2H196.327V31.2H194.247V20.6H194.207L192.607 31.2H190.767L189.167 20.6H189.127V31.2H187.207V17.2Z" fill="white"/>
<path d="M182.379 31.4C181.299 31.4 180.473 31.0933 179.899 30.48C179.326 29.8667 179.039 29 179.039 27.88V20.52C179.039 19.4 179.326 18.5333 179.899 17.92C180.473 17.3067 181.299 17 182.379 17C183.459 17 184.286 17.3067 184.859 17.92C185.433 18.5333 185.719 19.4 185.719 20.52V27.88C185.719 29 185.433 29.8667 184.859 30.48C184.286 31.0933 183.459 31.4 182.379 31.4ZM182.379 29.4C183.139 29.4 183.519 28.94 183.519 28.02V20.38C183.519 19.46 183.139 19 182.379 19C181.619 19 181.239 19.46 181.239 20.38V28.02C181.239 28.94 181.619 29.4 182.379 29.4Z" fill="white"/>
<path d="M171.133 17.2H174.393C175.526 17.2 176.353 17.4667 176.873 18C177.393 18.52 177.653 19.3267 177.653 20.42V21.28C177.653 22.7333 177.173 23.6533 176.213 24.04V24.08C176.746 24.24 177.119 24.5667 177.333 25.06C177.559 25.5533 177.673 26.2133 177.673 27.04V29.5C177.673 29.9 177.686 30.2267 177.713 30.48C177.739 30.72 177.806 30.96 177.913 31.2H175.673C175.593 30.9733 175.539 30.76 175.513 30.56C175.486 30.36 175.473 30 175.473 29.48V26.92C175.473 26.28 175.366 25.8333 175.153 25.58C174.953 25.3267 174.599 25.2 174.093 25.2H173.333V31.2H171.133V17.2ZM174.133 23.2C174.573 23.2 174.899 23.0867 175.113 22.86C175.339 22.6333 175.453 22.2533 175.453 21.72V20.64C175.453 20.1333 175.359 19.7667 175.173 19.54C174.999 19.3133 174.719 19.2 174.333 19.2H173.333V23.2H174.133Z" fill="white"/>
<path d="M164.258 17.2H170.078V19.2H166.458V23.1H169.298V25.1H166.458V31.2H164.258V17.2Z" fill="white"/>
<path d="M155.49 19.2H153.19V17.2H159.99V19.2H157.69V31.2H155.49V19.2Z" fill="white"/>
<path d="M149.922 17.2H152.122V31.2H149.922V17.2Z" fill="white"/>
<path d="M138.594 17.2H141.954C143.047 17.2 143.867 17.4933 144.414 18.08C144.96 18.6667 145.234 19.5267 145.234 20.66V27.74C145.234 28.8733 144.96 29.7333 144.414 30.32C143.867 30.9067 143.047 31.2 141.954 31.2H138.594V17.2ZM141.914 29.2C142.274 29.2 142.547 29.0933 142.734 28.88C142.934 28.6667 143.034 28.32 143.034 27.84V20.56C143.034 20.08 142.934 19.7333 142.734 19.52C142.547 19.3067 142.274 19.2 141.914 19.2H140.794V29.2H141.914Z" fill="white"/>
<path d="M132.266 17.2H135.246L137.526 31.2H135.326L134.926 28.42V28.46H132.426L132.026 31.2H129.986L132.266 17.2ZM134.666 26.56L133.686 19.64H133.646L132.686 26.56H134.666Z" fill="white"/>
<path d="M125.778 31.4C124.698 31.4 123.871 31.0933 123.298 30.48C122.724 29.8667 122.438 29 122.438 27.88V20.52C122.438 19.4 122.724 18.5333 123.298 17.92C123.871 17.3067 124.698 17 125.778 17C126.858 17 127.684 17.3067 128.258 17.92C128.831 18.5333 129.118 19.4 129.118 20.52V27.88C129.118 29 128.831 29.8667 128.258 30.48C127.684 31.0933 126.858 31.4 125.778 31.4ZM125.778 29.4C126.538 29.4 126.918 28.94 126.918 28.02V20.38C126.918 19.46 126.538 19 125.778 19C125.018 19 124.638 19.46 124.638 20.38V28.02C124.638 28.94 125.018 29.4 125.778 29.4Z" fill="white"/>
<path d="M115.801 17.2H118.001V29.2H121.621V31.2H115.801V17.2Z" fill="white"/>
<path d="M107.266 17.2H110.026L112.166 25.58H112.206V17.2H114.166V31.2H111.906L109.266 20.98H109.226V31.2H107.266V17.2Z" fill="white"/>
<path d="M95.6128 17.2H97.7328L98.7128 27.96H98.7528L99.7928 17.2H102.193L103.233 27.96H103.273L104.253 17.2H106.153L104.733 31.2H101.993L100.993 21.76H100.953L99.9528 31.2H97.0328L95.6128 17.2Z" fill="white"/>
<path d="M91.305 31.4C90.225 31.4 89.3983 31.0933 88.825 30.48C88.2517 29.8667 87.965 29 87.965 27.88V20.52C87.965 19.4 88.2517 18.5333 88.825 17.92C89.3983 17.3067 90.225 17 91.305 17C92.385 17 93.2117 17.3067 93.785 17.92C94.3583 18.5333 94.645 19.4 94.645 20.52V27.88C94.645 29 94.3583 29.8667 93.785 30.48C93.2117 31.0933 92.385 31.4 91.305 31.4ZM91.305 29.4C92.065 29.4 92.445 28.94 92.445 28.02V20.38C92.445 19.46 92.065 19 91.305 19C90.545 19 90.165 19.46 90.165 20.38V28.02C90.165 28.94 90.545 29.4 91.305 29.4Z" fill="white"/>
<path d="M80 17.2H83.36C84.4533 17.2 85.2733 17.4933 85.82 18.08C86.3667 18.6667 86.64 19.5267 86.64 20.66V27.74C86.64 28.8733 86.3667 29.7333 85.82 30.32C85.2733 30.9067 84.4533 31.2 83.36 31.2H80V17.2ZM83.32 29.2C83.68 29.2 83.9533 29.0933 84.14 28.88C84.34 28.6667 84.44 28.32 84.44 27.84V20.56C84.44 20.08 84.34 19.7333 84.14 19.52C83.9533 19.3067 83.68 19.2 83.32 19.2H82.2V29.2H83.32Z" fill="white"/>
</svg>
