<svg width="240" height="80" viewBox="0 0 240 80" fill="none" xmlns="http://www.w3.org/2000/svg">
<rect x="1" y="1" width="238" height="78" rx="7" fill="black" stroke="#D4D4D4" stroke-width="2"/>
<path d="M38.3878 59.7796L54.5727 34.3743C59.314 37.1752 61.4598 44.0537 60.5608 49.0766C60.0121 52.1427 57.313 56.2469 54.1291 58.129C50.8856 60.0464 45.7542 60.265 38.3878 59.7796Z" fill="white"/>
<path d="M42.3736 20.2204L26.1887 45.6257C21.4473 42.8248 19.3015 35.9463 20.2006 30.9234C20.7493 27.8573 23.4484 23.7531 26.6323 21.871C29.8758 19.9537 35.0071 19.7351 42.3736 20.2204Z" fill="white"/>
<path d="M36.7319 34.3743H51.1974L35.0125 59.7796H20.5469L36.7319 34.3743Z" fill="white"/>
<path d="M39.1978 30.5036L45.7489 20.2205H60.2144L53.6634 30.5036H39.1978Z" fill="white"/>
<path d="M192.875 40.3199H198.251C200 40.3199 201.312 40.7893 202.187 41.7279C203.062 42.6666 203.499 44.0426 203.499 45.8559V57.1839C203.499 58.9973 203.062 60.3733 202.187 61.3119C201.312 62.2506 200 62.7199 198.251 62.7199H192.875V40.3199ZM198.187 59.5199C198.763 59.5199 199.2 59.3493 199.499 59.0079C199.819 58.6666 199.979 58.1119 199.979 57.3439V45.6959C199.979 44.9279 199.819 44.3733 199.499 44.0319C199.2 43.6906 198.763 43.5199 198.187 43.5199H196.395V59.5199H198.187Z" fill="white"/>
<path d="M186.719 40.3199H190.239V62.7199H186.719V40.3199Z" fill="white"/>
<path d="M178.994 63.04C177.266 63.04 175.944 62.5493 175.026 61.568C174.109 60.5867 173.65 59.2 173.65 57.408V45.632C173.65 43.84 174.109 42.4533 175.026 41.472C175.944 40.4907 177.266 40 178.994 40C180.722 40 182.045 40.4907 182.962 41.472C183.88 42.4533 184.338 43.84 184.338 45.632V57.408C184.338 59.2 183.88 60.5867 182.962 61.568C182.045 62.5493 180.722 63.04 178.994 63.04ZM178.994 59.84C180.21 59.84 180.818 59.104 180.818 57.632V45.408C180.818 43.936 180.21 43.2 178.994 43.2C177.778 43.2 177.17 43.936 177.17 45.408V57.632C177.17 59.104 177.778 59.84 178.994 59.84Z" fill="white"/>
<path d="M161 40.3199H166.216C168.029 40.3199 169.352 40.7466 170.184 41.5999C171.016 42.4319 171.432 43.7226 171.432 45.4719V46.8479C171.432 49.1733 170.664 50.6453 169.128 51.2639V51.3279C169.981 51.5839 170.579 52.1066 170.92 52.8959C171.283 53.6853 171.464 54.7413 171.464 56.0639V59.9999C171.464 60.6399 171.485 61.1626 171.528 61.5679C171.571 61.9519 171.677 62.3359 171.848 62.7199H168.264C168.136 62.3573 168.051 62.0159 168.008 61.6959C167.965 61.3759 167.944 60.7999 167.944 59.9679V55.8719C167.944 54.8479 167.773 54.1333 167.432 53.7279C167.112 53.3226 166.547 53.1199 165.736 53.1199H164.52V62.7199H161V40.3199ZM165.8 49.9199C166.504 49.9199 167.027 49.7386 167.368 49.3759C167.731 49.0133 167.912 48.4053 167.912 47.5519V45.8239C167.912 45.0133 167.763 44.4266 167.464 44.0639C167.187 43.7013 166.739 43.5199 166.12 43.5199H164.52V49.9199H165.8Z" fill="white"/>
<path d="M148 40.3199H153.376C155.125 40.3199 156.437 40.7893 157.312 41.7279C158.187 42.6666 158.624 44.0426 158.624 45.8559V57.1839C158.624 58.9973 158.187 60.3733 157.312 61.3119C156.437 62.2506 155.125 62.7199 153.376 62.7199H148V40.3199ZM153.312 59.5199C153.888 59.5199 154.325 59.3493 154.624 59.0079C154.944 58.6666 155.104 58.1119 155.104 57.3439V45.6959C155.104 44.9279 154.944 44.3733 154.624 44.0319C154.325 43.6906 153.888 43.5199 153.312 43.5199H151.52V59.5199H153.312Z" fill="white"/>
<path d="M134.344 40.3199H138.76L142.184 53.7279H142.248V40.3199H145.384V62.7199H141.768L137.544 46.3679H137.48V62.7199H134.344V40.3199Z" fill="white"/>
<path d="M126.619 63.04C124.891 63.04 123.569 62.5493 122.651 61.568C121.734 60.5867 121.275 59.2 121.275 57.408V45.632C121.275 43.84 121.734 42.4533 122.651 41.472C123.569 40.4907 124.891 40 126.619 40C128.347 40 129.67 40.4907 130.587 41.472C131.505 42.4533 131.963 43.84 131.963 45.632V57.408C131.963 59.2 131.505 60.5867 130.587 61.568C129.67 62.5493 128.347 63.04 126.619 63.04ZM126.619 59.84C127.835 59.84 128.443 59.104 128.443 57.632V45.408C128.443 43.936 127.835 43.2 126.619 43.2C125.403 43.2 124.795 43.936 124.795 45.408V57.632C124.795 59.104 125.403 59.84 126.619 59.84Z" fill="white"/>
<path d="M112.732 53.1839L108.476 40.3199H112.22L114.62 48.5439H114.684L117.084 40.3199H120.508L116.252 53.1839V62.7199H112.732V53.1839Z" fill="white"/>
<path d="M97.2023 59.5839L103.73 43.5199H97.5223V40.3199H107.506V43.4559L100.978 59.5199H107.506V62.7199H97.2023V59.5839Z" fill="white"/>
<path d="M85.4523 59.5839L91.9803 43.5199H85.7723V40.3199H95.7563V43.4559L89.2283 59.5199H95.7563V62.7199H85.4523V59.5839Z" fill="white"/>
<path d="M80 40.3199H83.52V62.7199H80V40.3199Z" fill="white"/>
<path d="M187.207 17.2H190.347L191.747 27.22H191.787L193.187 17.2H196.327V31.2H194.247V20.6H194.207L192.607 31.2H190.767L189.167 20.6H189.127V31.2H187.207V17.2Z" fill="white"/>
<path d="M182.379 31.4C181.299 31.4 180.473 31.0933 179.899 30.48C179.326 29.8667 179.039 29 179.039 27.88V20.52C179.039 19.4 179.326 18.5333 179.899 17.92C180.473 17.3067 181.299 17 182.379 17C183.459 17 184.286 17.3067 184.859 17.92C185.433 18.5333 185.719 19.4 185.719 20.52V27.88C185.719 29 185.433 29.8667 184.859 30.48C184.286 31.0933 183.459 31.4 182.379 31.4ZM182.379 29.4C183.139 29.4 183.519 28.94 183.519 28.02V20.38C183.519 19.46 183.139 19 182.379 19C181.619 19 181.239 19.46 181.239 20.38V28.02C181.239 28.94 181.619 29.4 182.379 29.4Z" fill="white"/>
<path d="M171.133 17.2H174.393C175.526 17.2 176.353 17.4667 176.873 18C177.393 18.52 177.653 19.3267 177.653 20.42V21.28C177.653 22.7333 177.173 23.6533 176.213 24.04V24.08C176.746 24.24 177.119 24.5667 177.333 25.06C177.559 25.5533 177.673 26.2133 177.673 27.04V29.5C177.673 29.9 177.686 30.2267 177.713 30.48C177.739 30.72 177.806 30.96 177.913 31.2H175.673C175.593 30.9733 175.539 30.76 175.513 30.56C175.486 30.36 175.473 30 175.473 29.48V26.92C175.473 26.28 175.366 25.8333 175.153 25.58C174.953 25.3267 174.599 25.2 174.093 25.2H173.333V31.2H171.133V17.2ZM174.133 23.2C174.573 23.2 174.899 23.0867 175.113 22.86C175.339 22.6333 175.453 22.2533 175.453 21.72V20.64C175.453 20.1333 175.359 19.7667 175.173 19.54C174.999 19.3133 174.719 19.2 174.333 19.2H173.333V23.2H174.133Z" fill="white"/>
<path d="M164.258 17.2H170.078V19.2H166.458V23.1H169.298V25.1H166.458V31.2H164.258V17.2Z" fill="white"/>
<path d="M155.49 19.2H153.19V17.2H159.99V19.2H157.69V31.2H155.49V19.2Z" fill="white"/>
<path d="M149.922 17.2H152.122V31.2H149.922V17.2Z" fill="white"/>
<path d="M138.594 17.2H141.954C143.047 17.2 143.867 17.4933 144.414 18.08C144.96 18.6667 145.234 19.5267 145.234 20.66V27.74C145.234 28.8733 144.96 29.7333 144.414 30.32C143.867 30.9067 143.047 31.2 141.954 31.2H138.594V17.2ZM141.914 29.2C142.274 29.2 142.547 29.0933 142.734 28.88C142.934 28.6667 143.034 28.32 143.034 27.84V20.56C143.034 20.08 142.934 19.7333 142.734 19.52C142.547 19.3067 142.274 19.2 141.914 19.2H140.794V29.2H141.914Z" fill="white"/>
<path d="M132.266 17.2H135.246L137.526 31.2H135.326L134.926 28.42V28.46H132.426L132.026 31.2H129.986L132.266 17.2ZM134.666 26.56L133.686 19.64H133.646L132.686 26.56H134.666Z" fill="white"/>
<path d="M125.778 31.4C124.698 31.4 123.871 31.0933 123.298 30.48C122.724 29.8667 122.438 29 122.438 27.88V20.52C122.438 19.4 122.724 18.5333 123.298 17.92C123.871 17.3067 124.698 17 125.778 17C126.858 17 127.684 17.3067 128.258 17.92C128.831 18.5333 129.118 19.4 129.118 20.52V27.88C129.118 29 128.831 29.8667 128.258 30.48C127.684 31.0933 126.858 31.4 125.778 31.4ZM125.778 29.4C126.538 29.4 126.918 28.94 126.918 28.02V20.38C126.918 19.46 126.538 19 125.778 19C125.018 19 124.638 19.46 124.638 20.38V28.02C124.638 28.94 125.018 29.4 125.778 29.4Z" fill="white"/>
<path d="M115.801 17.2H118.001V29.2H121.621V31.2H115.801V17.2Z" fill="white"/>
<path d="M107.266 17.2H110.026L112.166 25.58H112.206V17.2H114.166V31.2H111.906L109.266 20.98H109.226V31.2H107.266V17.2Z" fill="white"/>
<path d="M95.6128 17.2H97.7328L98.7128 27.96H98.7528L99.7928 17.2H102.193L103.233 27.96H103.273L104.253 17.2H106.153L104.733 31.2H101.993L100.993 21.76H100.953L99.9528 31.2H97.0328L95.6128 17.2Z" fill="white"/>
<path d="M91.305 31.4C90.225 31.4 89.3983 31.0933 88.825 30.48C88.2517 29.8667 87.965 29 87.965 27.88V20.52C87.965 19.4 88.2517 18.5333 88.825 17.92C89.3983 17.3067 90.225 17 91.305 17C92.385 17 93.2117 17.3067 93.785 17.92C94.3583 18.5333 94.645 19.4 94.645 20.52V27.88C94.645 29 94.3583 29.8667 93.785 30.48C93.2117 31.0933 92.385 31.4 91.305 31.4ZM91.305 29.4C92.065 29.4 92.445 28.94 92.445 28.02V20.38C92.445 19.46 92.065 19 91.305 19C90.545 19 90.165 19.46 90.165 20.38V28.02C90.165 28.94 90.545 29.4 91.305 29.4Z" fill="white"/>
<path d="M80 17.2H83.36C84.4533 17.2 85.2733 17.4933 85.82 18.08C86.3667 18.6667 86.64 19.5267 86.64 20.66V27.74C86.64 28.8733 86.3667 29.7333 85.82 30.32C85.2733 30.9067 84.4533 31.2 83.36 31.2H80V17.2ZM83.32 29.2C83.68 29.2 83.9533 29.0933 84.14 28.88C84.34 28.6667 84.44 28.32 84.44 27.84V20.56C84.44 20.08 84.34 19.7333 84.14 19.52C83.9533 19.3067 83.68 19.2 83.32 19.2H82.2V29.2H83.32Z" fill="white"/>
</svg>
