<svg width="240" height="80" viewBox="0 0 240 80" fill="none" xmlns="http://www.w3.org/2000/svg">
<rect x="1" y="1" width="238" height="78" rx="7" fill="black" stroke="#D4D4D4" stroke-width="2"/>
<path d="M40.5 19C28.6212 19 19 28.6415 19 40.5332C19 50.0491 25.1597 58.1186 33.7006 60.9628C34.7756 61.1656 35.1698 60.4998 35.1698 59.9274C35.1698 59.416 35.1519 58.0612 35.1429 56.2668C29.1623 57.5659 27.901 53.3777 27.901 53.3777C26.9227 50.8924 25.5091 50.2285 25.5091 50.2285C23.5616 48.8934 25.6596 48.9204 25.6596 48.9204C27.8186 49.0711 28.9527 51.1383 28.9527 51.1383C30.8698 54.4311 33.9855 53.48 35.2146 52.9291C35.4081 51.5366 35.9617 50.5874 36.5763 50.0491C31.8015 49.5107 26.783 47.6589 26.783 39.4081C26.783 37.0574 27.6161 35.1373 28.9957 33.63C28.7538 33.0863 28.0282 30.8971 29.1838 27.9309C29.1838 27.9309 30.9845 27.3531 35.0963 30.138C36.8163 29.6589 38.6438 29.4221 40.4713 29.4113C42.2988 29.4221 44.1263 29.6589 45.8463 30.138C49.9313 27.3531 51.732 27.9309 51.732 27.9309C52.8876 30.8971 52.162 33.0863 51.947 33.63C53.3176 35.1373 54.1507 37.0574 54.1507 39.4081C54.1507 47.6804 49.1251 49.5018 44.3413 50.0311C45.0938 50.6771 45.7926 51.9978 45.7926 54.0148C45.7926 56.8966 45.7657 59.2114 45.7657 59.9113C45.7657 60.4765 46.142 61.1494 47.2438 60.9341C55.8456 58.1096 62 50.0347 62 40.5332C62 28.6415 52.3734 19 40.5 19Z" fill="white"/>
<path d="M187.207 17.2H190.347L191.747 27.22H191.787L193.187 17.2H196.327V31.2H194.247V20.6H194.207L192.607 31.2H190.767L189.167 20.6H189.127V31.2H187.207V17.2Z" fill="white"/>
<path d="M182.379 31.4C181.299 31.4 180.473 31.0933 179.899 30.48C179.326 29.8667 179.039 29 179.039 27.88V20.52C179.039 19.4 179.326 18.5333 179.899 17.92C180.473 17.3067 181.299 17 182.379 17C183.459 17 184.286 17.3067 184.859 17.92C185.433 18.5333 185.719 19.4 185.719 20.52V27.88C185.719 29 185.433 29.8667 184.859 30.48C184.286 31.0933 183.459 31.4 182.379 31.4ZM182.379 29.4C183.139 29.4 183.519 28.94 183.519 28.02V20.38C183.519 19.46 183.139 19 182.379 19C181.619 19 181.239 19.46 181.239 20.38V28.02C181.239 28.94 181.619 29.4 182.379 29.4Z" fill="white"/>
<path d="M171.133 17.2H174.393C175.526 17.2 176.353 17.4667 176.873 18C177.393 18.52 177.653 19.3267 177.653 20.42V21.28C177.653 22.7333 177.173 23.6533 176.213 24.04V24.08C176.746 24.24 177.119 24.5667 177.333 25.06C177.559 25.5533 177.673 26.2133 177.673 27.04V29.5C177.673 29.9 177.686 30.2267 177.713 30.48C177.739 30.72 177.806 30.96 177.913 31.2H175.673C175.593 30.9733 175.539 30.76 175.513 30.56C175.486 30.36 175.473 30 175.473 29.48V26.92C175.473 26.28 175.366 25.8333 175.153 25.58C174.953 25.3267 174.599 25.2 174.093 25.2H173.333V31.2H171.133V17.2ZM174.133 23.2C174.573 23.2 174.899 23.0867 175.113 22.86C175.339 22.6333 175.453 22.2533 175.453 21.72V20.64C175.453 20.1333 175.359 19.7667 175.173 19.54C174.999 19.3133 174.719 19.2 174.333 19.2H173.333V23.2H174.133Z" fill="white"/>
<path d="M164.258 17.2H170.078V19.2H166.458V23.1H169.298V25.1H166.458V31.2H164.258V17.2Z" fill="white"/>
<path d="M155.49 19.2H153.19V17.2H159.99V19.2H157.69V31.2H155.49V19.2Z" fill="white"/>
<path d="M149.922 17.2H152.122V31.2H149.922V17.2Z" fill="white"/>
<path d="M138.594 17.2H141.954C143.047 17.2 143.867 17.4933 144.414 18.08C144.96 18.6667 145.234 19.5267 145.234 20.66V27.74C145.234 28.8733 144.96 29.7333 144.414 30.32C143.867 30.9067 143.047 31.2 141.954 31.2H138.594V17.2ZM141.914 29.2C142.274 29.2 142.547 29.0933 142.734 28.88C142.934 28.6667 143.034 28.32 143.034 27.84V20.56C143.034 20.08 142.934 19.7333 142.734 19.52C142.547 19.3067 142.274 19.2 141.914 19.2H140.794V29.2H141.914Z" fill="white"/>
<path d="M132.266 17.2H135.246L137.526 31.2H135.326L134.926 28.42V28.46H132.426L132.026 31.2H129.986L132.266 17.2ZM134.666 26.56L133.686 19.64H133.646L132.686 26.56H134.666Z" fill="white"/>
<path d="M125.778 31.4C124.698 31.4 123.871 31.0933 123.298 30.48C122.724 29.8667 122.438 29 122.438 27.88V20.52C122.438 19.4 122.724 18.5333 123.298 17.92C123.871 17.3067 124.698 17 125.778 17C126.858 17 127.684 17.3067 128.258 17.92C128.831 18.5333 129.118 19.4 129.118 20.52V27.88C129.118 29 128.831 29.8667 128.258 30.48C127.684 31.0933 126.858 31.4 125.778 31.4ZM125.778 29.4C126.538 29.4 126.918 28.94 126.918 28.02V20.38C126.918 19.46 126.538 19 125.778 19C125.018 19 124.638 19.46 124.638 20.38V28.02C124.638 28.94 125.018 29.4 125.778 29.4Z" fill="white"/>
<path d="M115.801 17.2H118.001V29.2H121.621V31.2H115.801V17.2Z" fill="white"/>
<path d="M107.266 17.2H110.026L112.166 25.58H112.206V17.2H114.166V31.2H111.906L109.266 20.98H109.226V31.2H107.266V17.2Z" fill="white"/>
<path d="M95.6128 17.2H97.7328L98.7128 27.96H98.7528L99.7928 17.2H102.193L103.233 27.96H103.273L104.253 17.2H106.153L104.733 31.2H101.993L100.993 21.76H100.953L99.9528 31.2H97.0328L95.6128 17.2Z" fill="white"/>
<path d="M91.305 31.4C90.225 31.4 89.3983 31.0933 88.825 30.48C88.2517 29.8667 87.965 29 87.965 27.88V20.52C87.965 19.4 88.2517 18.5333 88.825 17.92C89.3983 17.3067 90.225 17 91.305 17C92.385 17 93.2117 17.3067 93.785 17.92C94.3583 18.5333 94.645 19.4 94.645 20.52V27.88C94.645 29 94.3583 29.8667 93.785 30.48C93.2117 31.0933 92.385 31.4 91.305 31.4ZM91.305 29.4C92.065 29.4 92.445 28.94 92.445 28.02V20.38C92.445 19.46 92.065 19 91.305 19C90.545 19 90.165 19.46 90.165 20.38V28.02C90.165 28.94 90.545 29.4 91.305 29.4Z" fill="white"/>
<path d="M80 17.2H83.36C84.4533 17.2 85.2733 17.4933 85.82 18.08C86.3667 18.6667 86.64 19.5267 86.64 20.66V27.74C86.64 28.8733 86.3667 29.7333 85.82 30.32C85.2733 30.9067 84.4533 31.2 83.36 31.2H80V17.2ZM83.32 29.2C83.68 29.2 83.9533 29.0933 84.14 28.88C84.34 28.6667 84.44 28.32 84.44 27.84V20.56C84.44 20.08 84.34 19.7333 84.14 19.52C83.9533 19.3067 83.68 19.2 83.32 19.2H82.2V29.2H83.32Z" fill="white"/>
<path d="M136.881 40.32H142.193C144.006 40.32 145.329 40.7467 146.161 41.6C146.993 42.432 147.409 43.7227 147.409 45.472V46.368C147.409 47.52 147.217 48.4587 146.833 49.184C146.47 49.9093 145.905 50.432 145.137 50.752V50.816C146.886 51.4133 147.761 52.9707 147.761 55.488V57.408C147.761 59.136 147.302 60.4587 146.385 61.376C145.489 62.272 144.166 62.72 142.417 62.72H136.881V40.32ZM141.777 49.44C142.481 49.44 143.004 49.2587 143.345 48.896C143.708 48.5333 143.889 47.9253 143.889 47.072V45.824C143.889 45.0133 143.74 44.4267 143.441 44.064C143.164 43.7013 142.716 43.52 142.097 43.52H140.401V49.44H141.777ZM142.417 59.52C143.036 59.52 143.494 59.36 143.793 59.04C144.092 58.6987 144.241 58.1227 144.241 57.312V55.36C144.241 54.336 144.06 53.632 143.697 53.248C143.356 52.8427 142.78 52.64 141.969 52.64H140.401V59.52H142.417Z" fill="white"/>
<path d="M129.126 63.04C127.419 63.04 126.118 62.56 125.222 61.6C124.326 60.6187 123.878 59.2213 123.878 57.408V40.32H127.398V57.664C127.398 58.432 127.547 58.9867 127.846 59.328C128.166 59.6693 128.614 59.84 129.19 59.84C129.766 59.84 130.203 59.6693 130.502 59.328C130.822 58.9867 130.982 58.432 130.982 57.664V40.32H134.374V57.408C134.374 59.2213 133.926 60.6187 133.03 61.6C132.134 62.56 130.833 63.04 129.126 63.04Z" fill="white"/>
<path d="M110.568 40.32H114.088V49.44H117.864V40.32H121.384V62.72H117.864V52.64H114.088V62.72H110.568V40.32Z" fill="white"/>
<path d="M101.664 43.52H97.9843V40.32H108.864V43.52H105.184V62.72H101.664V43.52Z" fill="white"/>
<path d="M92.756 40.32H96.276V62.72H92.756V40.32Z" fill="white"/>
<path d="M85.248 63.04C83.5413 63.04 82.24 62.56 81.344 61.6C80.448 60.6187 80 59.2213 80 57.408V45.632C80 43.8187 80.448 42.432 81.344 41.472C82.24 40.4907 83.5413 40 85.248 40C86.9547 40 88.256 40.4907 89.152 41.472C90.048 42.432 90.496 43.8187 90.496 45.632V47.552H87.168V45.408C87.168 43.936 86.56 43.2 85.344 43.2C84.128 43.2 83.52 43.936 83.52 45.408V57.664C83.52 59.1147 84.128 59.84 85.344 59.84C86.56 59.84 87.168 59.1147 87.168 57.664V53.28H85.408V50.08H90.496V57.408C90.496 59.2213 90.048 60.6187 89.152 61.6C88.256 62.56 86.9547 63.04 85.248 63.04Z" fill="white"/>
</svg>
